<?xml version="1.0" encoding="iso-8859-1"?>
<!-- Generator: Adobe Illustrator 19.0.0, SVG Export Plug-In . SVG Version: 6.00 Build 0)  -->
<svg xmlns:xlink="http://www.w3.org/1999/xlink" version="1.1" id="Capa_1" xmlns="http://www.w3.org/2000/svg" x="0px" y="0px"
	 viewBox="0 0 512 512" style="enable-background:new 0 0 512 512;" xml:space="preserve">
<polygon style="fill:#FFDD95;" points="69.9,171.13 145.071,169.415 172.231,162.093 235.557,162.812 266.618,137.403 
	322.788,137.837 374.285,169.805 453.835,170.536 449.13,277.057 395.508,276.277 348.538,295.932 363.862,315.16 238.121,374.597 
	127.236,275.793 65.015,275.021 "/>
<path d="M238.123,382.724c-1.956,0-3.889-0.707-5.408-2.059l-108.617-96.786l-59.183-0.73c-2.205-0.028-4.301-0.948-5.814-2.551
	c-1.512-1.607-2.308-3.754-2.203-5.956l4.885-103.893c0.2-4.264,3.665-7.647,7.932-7.744l74.189-1.692l26.21-7.065
	c0.72-0.194,1.472-0.284,2.206-0.28l60.375,0.684l28.775-23.537c1.468-1.2,3.289-1.79,5.21-1.838l56.166,0.434
	c1.492,0.012,2.953,0.434,4.222,1.223l49.567,30.768l77.27,0.709c2.203,0.02,4.305,0.937,5.821,2.536
	c1.516,1.599,2.321,3.748,2.222,5.95l-4.703,106.52c-0.191,4.353-3.778,7.77-8.115,7.77c-0.043,0-0.084,0-0.123,0l-51.929-0.758
	l-35.488,14.849l8.623,10.821c1.548,1.941,2.119,4.484,1.56,6.9c-0.563,2.421-2.199,4.449-4.445,5.512l-125.737,59.438
	C240.487,382.47,239.3,382.724,238.123,382.724z M73.529,266.998l53.808,0.667c1.958,0.024,3.843,0.758,5.305,2.059l106.869,95.226
	l111.599-52.75l-8.929-11.207c-1.587-1.992-2.147-4.615-1.516-7.08c0.631-2.468,2.385-4.496,4.734-5.481l46.968-19.655
	c1.032-0.432,2.139-0.595,3.258-0.631l45.734,0.667l3.98-90.23l-71.131-0.653c-1.488-0.013-2.945-0.436-4.211-1.223l-49.56-30.764
	l-50.949-0.395l-28.79,23.55c-1.476,1.206-3.369,1.825-5.236,1.838l-62.204-0.707l-26.075,7.029
	c-0.629,0.168-1.277,0.262-1.93,0.278l-67.593,1.541L73.529,266.998z"/>
<path style="fill:#FFDD95;" d="M73.147,275.68l55.706-0.163l99.06,88.324c6.689,5.961,18.765,7.899,27.022,4.312l99.072-43.089
	c8.236-3.58,9.968-11.752,3.783-18.334l-85.886-91.445L222.9,249.885c-11.016,7.777-27.396,6.115-36.613-3.731l4.681,5.002
	c-9.204-9.834-9.362-25.905-0.346-35.892l69.392-76.873l64.894-0.642l50.314,32.257l65.044-0.151"/>
<path d="M245.466,378.105c-8.389,0-17.004-2.889-22.963-8.198l-96.739-86.254l-52.595,0.155c-4.527,0.111-8.137-3.615-8.151-8.103
	s3.615-8.138,8.103-8.151l55.706-0.163c0.008,0,0.015,0,0.024,0c1.994,0,3.919,0.735,5.408,2.059l99.06,88.322
	c4.303,3.841,13.064,5.234,18.375,2.928l99.069-43.091c1.44-0.627,2.429-1.484,2.588-2.246c0.155-0.754-0.417-1.928-1.484-3.072
	l-81.052-86.293l-43.232,30.526c-10.847,7.665-25.278,8.363-36.897,2.756c-2.076-0.071-4.123-0.933-5.653-2.569
	c-0.006-0.004-0.01-0.01-0.013-0.013l-4.669-4.988c-1.597-1.709-2.315-3.921-2.175-6.083c-4.482-11.903-2.367-26.086,6.412-35.808
	l69.393-76.873c1.522-1.685,3.678-2.657,5.952-2.68l64.893-0.643c1.389-0.047,3.131,0.43,4.464,1.286l48.301,30.965l62.651-0.144
	c0.008,0,0.016,0,0.02,0c4.48,0,8.115,3.627,8.127,8.11c0.012,4.488-3.619,8.135-8.107,8.145l-65.043,0.151
	c-1.405,0.058-3.087-0.443-4.405-1.286L322.562,145.9l-58.904,0.583l-67.004,74.228c-5.367,5.945-5.952,15.412-1.818,22.174
	c6.681,4.766,16.647,5.109,23.375,0.361l49.006-34.602c3.314-2.341,7.841-1.877,10.612,1.075l85.885,91.445
	c4.774,5.079,6.797,11.452,5.556,17.48c-1.242,6.036-5.627,11.091-12.024,13.869l-99.071,43.091
	C254.289,377.296,249.909,378.105,245.466,378.105z"/>
<path d="M277.639,364.471c-1.849,0-3.71-0.627-5.234-1.913l-41.119-34.671c-3.433-2.893-3.869-8.02-0.974-11.452
	c2.895-3.437,8.026-3.869,11.45-0.976l41.119,34.671c3.433,2.893,3.869,8.02,0.976,11.452
	C282.25,363.49,279.952,364.471,277.639,364.471z"/>
<path d="M307.048,350.471c-1.932,0-3.873-0.686-5.425-2.079l-37.774-33.912c-3.341-3-3.619-8.138-0.619-11.476
	c2.992-3.341,8.131-3.619,11.476-0.619l37.774,33.912c3.341,3,3.619,8.138,0.619,11.476
	C311.497,349.562,309.278,350.471,307.048,350.471z"/>
<path d="M339.155,336.545c-1.932,0-3.869-0.683-5.421-2.076l-40.87-36.635c-3.341-2.996-3.624-8.135-0.627-11.476
	c2.988-3.341,8.131-3.627,11.476-0.627l40.87,36.635c3.341,2.996,3.623,8.135,0.627,11.476
	C343.608,335.633,341.385,336.545,339.155,336.545z"/>
<rect x="8.127" y="145.858" style="fill:#DDDDDD;" width="65.021" height="154.411"/>
<path d="M73.143,308.395H8.127c-4.488,0-8.127-3.639-8.127-8.127V145.855c0-4.488,3.639-8.127,8.127-8.127h65.015
	c4.488,0,8.127,3.639,8.127,8.127v154.413C81.27,304.756,77.631,308.395,73.143,308.395z M16.254,292.141h48.762V153.982H16.254
	V292.141z"/>
<circle style="fill:#DDDDDD;" cx="40.63" cy="267.759" r="8.127"/>
<path d="M40.635,284.014c-8.963,0-16.254-7.289-16.254-16.254c0-8.963,7.291-16.254,16.254-16.254s16.254,7.291,16.254,16.254
	C56.888,276.725,49.597,284.014,40.635,284.014z"/>
<rect x="438.853" y="145.858" style="fill:#26BBEC;" width="65.021" height="154.411"/>
<path d="M503.873,308.395h-65.015c-4.488,0-8.127-3.639-8.127-8.127V145.855c0-4.488,3.639-8.127,8.127-8.127h65.016
	c4.488,0,8.127,3.639,8.127,8.127v154.413C512,304.756,508.361,308.395,503.873,308.395z M446.984,292.141h48.762V153.982h-48.762
	V292.141z"/>
<circle style="fill:#DDDDDD;" cx="471.364" cy="267.759" r="8.127"/>
<path d="M471.366,284.014c-8.964,0-16.254-7.289-16.254-16.254c0-8.963,7.289-16.254,16.254-16.254
	c8.964,0,16.254,7.291,16.254,16.254C487.619,276.725,480.33,284.014,471.366,284.014z"/>
<g>
</g>
<g>
</g>
<g>
</g>
<g>
</g>
<g>
</g>
<g>
</g>
<g>
</g>
<g>
</g>
<g>
</g>
<g>
</g>
<g>
</g>
<g>
</g>
<g>
</g>
<g>
</g>
<g>
</g>
</svg>
