<?xml version="1.0" encoding="iso-8859-1"?>
<!-- Generator: Adobe Illustrator 19.0.0, SVG Export Plug-In . SVG Version: 6.00 Build 0)  -->
<svg version="1.1" id="Capa_1" xmlns="http://www.w3.org/2000/svg" xmlns:xlink="http://www.w3.org/1999/xlink" x="0px" y="0px"
	 viewBox="0 0 512 512" style="enable-background:new 0 0 512 512;" xml:space="preserve">
<path style="fill:#FFDE33;" d="M478.599,122.199L457.301,376L424.9,406H87.1l-32.401-30L33.401,122.199L73.9,109.6l45.3,79.2
	c8.699,15.298,24.3,23.699,41.7,22.798c17.399-1.199,31.8-11.1,38.699-27.299l30.901-71.7h50.999l30.901,71.7
	c6.899,16.199,21.301,26.1,38.699,27.299c17.701,0.901,33.001-7.5,41.7-22.798l45.3-79.2L478.599,122.199z"/>
<path style="fill:#FFBC33;" d="M478.599,122.199L457.301,376L424.9,406H256V112.599h25.499l30.901,71.7
	c6.899,16.199,21.301,26.1,38.699,27.299c17.701,0.901,33.001-7.5,41.7-22.798l45.3-79.2L478.599,122.199z"/>
<path style="fill:#F39E31;" d="M467,136c-24.814,0-45-20.186-45-45s20.186-45,45-45s45,20.186,45,45S491.814,136,467,136z"/>
<circle style="fill:#4DA6FF;" cx="166" cy="301" r="15"/>
<circle style="fill:#E55639;" cx="106" cy="301" r="15"/>
<circle style="fill:#4596E6;" cx="346" cy="301" r="15"/>
<circle style="fill:#CF4529;" cx="406" cy="301" r="15"/>
<path style="fill:#F9BC35;" d="M256,46c-24.901,0-45,20.099-45,45c0,24.899,20.099,45,45,45s45-20.101,45-45
	C301,66.099,280.901,46,256,46z"/>
<path style="fill:#F39E31;" d="M301,91c0,24.899-20.099,45-45,45V46C280.901,46,301,66.099,301,91z"/>
<path style="fill:#F9BC35;" d="M457.301,376L451,452.199C450.399,460,443.8,466,436,466H76c-7.8,0-14.399-6-15-13.801L54.699,376
	H457.301z"/>
<path style="fill:#F39E31;" d="M457.301,376L451,452.199C450.399,460,443.8,466,436,466H256v-90H457.301z"/>
<path style="fill:#E55639;" d="M256,256c-24.901,0-45,20.099-45,45c0,24.899,20.099,45,45,45s45-20.101,45-45
	C301,276.099,280.901,256,256,256z"/>
<path style="fill:#CF4529;" d="M301,301c0,24.899-20.099,45-45,45v-90C280.901,256,301,276.099,301,301z"/>
<path style="fill:#F9BC35;" d="M45,136c-24.814,0-45-20.186-45-45s20.186-45,45-45s45,20.186,45,45S69.814,136,45,136z"/>
<g>
</g>
<g>
</g>
<g>
</g>
<g>
</g>
<g>
</g>
<g>
</g>
<g>
</g>
<g>
</g>
<g>
</g>
<g>
</g>
<g>
</g>
<g>
</g>
<g>
</g>
<g>
</g>
<g>
</g>
</svg>
