<?xml version="1.0" encoding="iso-8859-1"?>
<!-- Generator: Adobe Illustrator 19.0.0, SVG Export Plug-In . SVG Version: 6.00 Build 0)  -->
<svg version="1.1" id="Capa_1" xmlns="http://www.w3.org/2000/svg" xmlns:xlink="http://www.w3.org/1999/xlink" x="0px" y="0px"
	 viewBox="0 0 512 512" style="enable-background:new 0 0 512 512;" xml:space="preserve">
<circle style="fill:#00BAFF;" cx="256" cy="256" r="256"/>
<path style="fill:#008CC3;" d="M438.468,193.102l-49.278,64.227L278.335,146.474l-72.943,150.809L104.139,196.03l-32.633,21.943
	l111.269,111.269L139,391.102l120.849,120.849c136.133-2.009,246.512-110.262,251.923-245.545L438.468,193.102z"/>
<g>
	<polygon style="fill:#FFDC00;" points="373,391.102 429.667,205.102 319,258.436 256,164.436 193,258.436 82.333,205.102 
		139,391.102 	"/>
	<polygon style="fill:#FFDC00;" points="193,258.436 82.333,205.102 139,391.102 256,391.102 256,164.436 	"/>
</g>
<polygon style="fill:#FFC000;" points="429.667,205.102 319,258.436 256,164.436 256,391.102 373,391.102 "/>
<circle style="fill:#FFB344;" cx="256" cy="164.44" r="28.667"/>
<path style="fill:#FF9451;" d="M256,135.769v57.333c15.832,0,28.667-12.835,28.667-28.667S271.832,135.769,256,135.769z"/>
<circle style="fill:#FFB344;" cx="87.67" cy="206.77" r="19.667"/>
<circle style="fill:#FF9451;" cx="424.33" cy="206.77" r="19.667"/>
<g>
</g>
<g>
</g>
<g>
</g>
<g>
</g>
<g>
</g>
<g>
</g>
<g>
</g>
<g>
</g>
<g>
</g>
<g>
</g>
<g>
</g>
<g>
</g>
<g>
</g>
<g>
</g>
<g>
</g>
</svg>
