<?xml version="1.0" encoding="iso-8859-1"?>
<!-- Generator: Adobe Illustrator 19.1.0, SVG Export Plug-In . SVG Version: 6.00 Build 0)  -->
<svg xmlns="http://www.w3.org/2000/svg" xmlns:xlink="http://www.w3.org/1999/xlink" version="1.1" id="Capa_1" x="0px" y="0px" viewBox="0 0 322.087 322.087" style="enable-background:new 0 0 322.087 322.087;" xml:space="preserve" width="512px" height="512px">
<g>
	<path d="M86.602,124.507c0.765,0.315,1.542,0.598,2.327,0.874l1.607,0.585c0.636,0.244,1.273,0.482,1.96,0.694   c6.215,1.934,12.712,2.931,19.313,2.943h0.013c2.224,0,4.415-0.122,6.498-0.334c0.79-0.071,1.581-0.199,2.371-0.334l1.253-0.193   c0.964-0.129,1.934-0.264,2.905-0.469c0.636-0.135,1.247-0.296,1.864-0.456l1.523-0.386c0.925-0.219,1.857-0.443,2.847-0.758   c0.469-0.154,0.938-0.328,1.395-0.501l1.356-0.488c1.041-0.36,2.089-0.726,3.098-1.15c0.431-0.18,0.848-0.386,1.6-0.758   c1.369-0.611,2.738-1.24,4.248-2.05l0.758-0.469c1.51-0.855,3.001-1.735,4.435-2.68l0.578-0.411   c17.539-12.095,28.015-31.974,28.047-53.362C176.597,29.069,147.528,0,111.801,0C77.707,0,49.326,26.671,47.199,60.727   l-0.058,0.855c-0.077,1.067-0.141,2.127-0.141,3.22C47.006,90.901,62.54,114.327,86.602,124.507z M59.969,62.482l0.064-0.951   c1.71-27.295,24.448-48.67,51.775-48.67c28.644,0,51.942,23.304,51.942,52.006c-0.026,17.217-8.561,33.278-22.532,42.764   l-0.611,0.411c-1.099,0.713-2.237,1.375-3.4,2.031l-0.662,0.418c-1.048,0.553-2.14,1.054-3.323,1.581l-1.266,0.617   c-0.758,0.315-1.549,0.585-2.339,0.861l-2.449,0.887c-0.623,0.193-1.266,0.341-1.902,0.495l-1.889,0.476   c-0.398,0.109-0.797,0.219-1.189,0.296c-0.649,0.135-1.311,0.219-1.967,0.302l-1.748,0.27c-0.437,0.077-0.868,0.161-1.395,0.206   c-1.742,0.174-3.483,0.27-5.264,0.27c-5.315-0.013-10.534-0.803-15.495-2.352c-0.424-0.135-0.829-0.289-1.24-0.45l-1.877-0.681   c-0.559-0.199-1.118-0.398-1.632-0.611C72.295,104.5,59.84,85.721,59.84,64.808C59.86,64.024,59.917,63.246,59.969,62.482z    M223.512,142.149c-17.783,0-34.326,5.251-48.298,14.19c-18.137-14.261-40.47-22.153-63.542-22.153   c-56.826,0-103.061,46.228-103.061,103.061c0,0.938,0.058,1.857,0.116,2.789l0.315,7.519h125.921   c7.359,42.263,44.204,74.532,88.542,74.532c49.609,0,89.969-40.361,89.969-89.969S273.121,142.149,223.512,142.149z    M133.588,234.702H21.504c1.356-48.568,41.286-87.662,90.175-87.662c19.023,0,37.533,6.067,52.886,17.224   c-0.296,0.264-0.553,0.559-0.848,0.823c-1.915,1.716-3.76,3.49-5.527,5.36c-0.443,0.469-0.874,0.945-1.305,1.433   c-1.69,1.87-3.303,3.805-4.833,5.803c-0.36,0.469-0.713,0.938-1.06,1.42c-1.542,2.108-2.988,4.28-4.351,6.523   c-0.244,0.405-0.501,0.81-0.739,1.221c-1.388,2.365-2.661,4.807-3.83,7.307c-0.154,0.321-0.321,0.643-0.469,0.958   c-1.176,2.596-2.224,5.251-3.156,7.969c-0.09,0.27-0.206,0.527-0.289,0.803c-0.9,2.712-1.665,5.476-2.301,8.291   c-0.071,0.302-0.161,0.598-0.231,0.9c-0.591,2.719-1.035,5.489-1.369,8.291c-0.045,0.398-0.135,0.778-0.18,1.176   c-0.334,3.149-0.527,6.337-0.527,9.57C133.55,232.973,133.562,233.834,133.588,234.702z M223.512,309.227   c-39.718,0-72.495-30.187-76.646-68.825c-0.309-2.879-0.463-5.598-0.463-8.291c0-2.931,0.199-5.842,0.533-8.721   c0.071-0.649,0.206-1.273,0.289-1.915c0.328-2.294,0.72-4.576,1.247-6.825c0.135-0.591,0.302-1.17,0.45-1.748   c0.611-2.352,1.318-4.679,2.147-6.947c0.148-0.405,0.289-0.81,0.443-1.208c1.003-2.616,2.121-5.186,3.4-7.674   c0.019-0.045,0.039-0.084,0.058-0.129c2.757-5.347,6.138-10.379,10.084-14.981c0.039-0.051,0.09-0.096,0.135-0.141   c1.832-2.121,3.798-4.139,5.868-6.061c0.308-0.283,0.623-0.566,0.932-0.842c1.973-1.774,4.036-3.464,6.202-5.045   c0.488-0.36,0.951-0.739,1.459-1.086l0.996-0.72c12.269-8.233,27.018-13.053,42.873-13.053c42.52,0,77.116,34.589,77.116,77.109   S266.039,309.227,223.512,309.227z M233.082,222.561h37.687v19.107h-37.687v37.693h-19.113v-37.693h-37.687v-19.107h37.687v-37.687   h19.113V222.561z" fill="#FFFFFF"/>
</g>
<g>
</g>
<g>
</g>
<g>
</g>
<g>
</g>
<g>
</g>
<g>
</g>
<g>
</g>
<g>
</g>
<g>
</g>
<g>
</g>
<g>
</g>
<g>
</g>
<g>
</g>
<g>
</g>
<g>
</g>
</svg>
