<?xml version="1.0" encoding="iso-8859-1"?>
<!-- Generator: Adobe Illustrator 19.0.0, SVG Export Plug-In . SVG Version: 6.00 Build 0)  -->
<svg version="1.1" id="Layer_1" xmlns="http://www.w3.org/2000/svg" xmlns:xlink="http://www.w3.org/1999/xlink" x="0px" y="0px"
	 viewBox="0 0 509.287 509.287" style="enable-background:new 0 0 509.287 509.287;" xml:space="preserve">
<circle style="fill:#0090FF;" cx="254.644" cy="254.644" r="254.644"/>
<polygon style="fill:#F1F3F7;" points="248.201,448.932 226.162,426.893 391.29,261.764 226.162,96.297 248.201,74.257 
	435.709,261.764 "/>
<circle style="fill:#FBD303;" cx="142.072" cy="170.893" r="40.689"/>
<rect x="77.18" y="92.031" transform="matrix(-0.7071 -0.7071 0.7071 -0.7071 203.3988 358.8434)" style="fill:#F1F3F7;" width="197.678" height="90.532"/>
<rect x="104.445" y="103.082" transform="matrix(-0.7071 -0.7071 0.7071 -0.7071 269.4629 331.0021)" style="fill:#FFFFFC;" width="197.678" height="13.224"/>
<g>
	
		<rect x="195.219" y="34.268" transform="matrix(-0.7071 -0.7071 0.7071 -0.7071 351.433 297.177)" style="fill:#646B79;" width="84.089" height="83.072"/>
	<path style="fill:#646B79;" d="M262.781,421.807H144.106c-38.993,0-70.866,31.534-70.866,70.866h260.408
		C333.309,453.679,301.775,421.807,262.781,421.807z"/>
</g>
<circle style="fill:#4F5565;" cx="393.664" cy="260.747" r="42.384"/>
<circle style="fill:#F1F3F7;" cx="393.664" cy="260.747" r="23.396"/>
<g>
</g>
<g>
</g>
<g>
</g>
<g>
</g>
<g>
</g>
<g>
</g>
<g>
</g>
<g>
</g>
<g>
</g>
<g>
</g>
<g>
</g>
<g>
</g>
<g>
</g>
<g>
</g>
<g>
</g>
</svg>
